<?xml version="1.0" encoding="utf-8"?>
<!-- Generator: Adobe Illustrator 23.0.0, SVG Export Plug-In . SVG Version: 6.00 Build 0)  -->
<svg version="1.1" id="Layer_1" xmlns="http://www.w3.org/2000/svg" xmlns:xlink="http://www.w3.org/1999/xlink" x="0px" y="0px"
	 viewBox="0 0 856 370" style="enable-background:new 0 0 856 370;" xml:space="preserve">
<style type="text/css">
	.st0{fill:#DDC7AF;}
	
		.st1{fill-rule:evenodd;clip-rule:evenodd;fill:#D9D8CC;stroke:#FFFFFF;stroke-width:0.6654;stroke-linecap:round;stroke-linejoin:round;stroke-miterlimit:3.8637;}
	.st2{fill:#FFFFFF;stroke:#FFFFFF;stroke-width:0.4436;stroke-miterlimit:10;}
	.st3{fill:#9E8E7E;}
	.st4{fill:#C0262C;}
	.st5{font-family:'MyriadPro-Regular';}
	.st6{font-size:12px;}
	.st7{fill:#C7B299;}
</style>
<g>
	<path class="st0" d="M168.05,101.9c-0.67,0.67-1.88,1.25-3.03,1.5c-0.38,0.08-0.76,0.13-1.1,0.13h-7.78
		c-0.35,0-2.18,0.28-2.45,0.37c-0.4,0.13-1.19,0.68-1.42,0.76c-0.23,0.08-0.5,0.15-0.8,0.2c-0.3,0.05-1.66,0.07-2.01,0.03
		l-4.82-0.58l-4.82-0.58c-0.51-0.06-1.15-0.1-1.82-0.11c-1.11-0.02-2.31,0.03-3.17,0.15l-11.32,0.9c-0.17,0-1.31-0.18-1.71-0.3
		c-0.59-0.19-1.19-0.46-1.7-0.78c-0.34-0.21-0.64-0.45-0.89-0.69l-3.44-3.44c-0.37-0.37-0.82-0.71-1.28-0.99
		c-0.47-0.28-0.95-0.51-1.39-0.65c-0.29-0.09-0.57-0.14-0.8-0.14c-0.93,0-2.5-0.8-3.48-1.78l-1.14-1.14
		c-0.98-0.98-5.99-5.99-5.99-5.99c-0.98-0.98-2.36-2.36-3.07-3.07c-0.36-0.36-0.96-0.68-1.65-0.91s-1.46-0.38-2.16-0.38h-2.55
		c-1.38,0-2.51,1.13-2.51,2.51c0,0-0.23,2.98-0.55,3.98c-0.11,0.33-0.22,0.63-0.35,0.87c-0.25,0.47-0.64,0.9-1.08,1.21
		c-0.44,0.31-0.92,0.51-1.34,0.51c-0.53,0-0.99,0.23-1.27,0.58c-0.17,0.21-0.26,0.46-0.26,0.73c0,0.36,0.15,0.83,0.39,1.29
		c0.24,0.46,1.28,1.66,1.44,1.94c0.47,0.83,0.8,2.04,0.8,3.07v4.03c0,1.38-1.13,2.51-2.51,2.51h-5.17c-0.35,0-1.55-0.24-1.78-0.35
		c-0.46-0.21-0.74-0.51-0.74-0.84c0-0.49-0.28-0.91-0.68-1.09c-0.13-0.06-0.28-0.09-0.43-0.09s-0.3,0.03-0.43,0.09
		s-0.25,0.14-0.36,0.24c-0.2,0.2-0.33,0.48-0.33,0.78s-0.27,0.61-0.69,0.87c-0.21,0.13-1.34,0.5-1.67,0.54
		c-0.81,0.1-1.61-0.22-2.15-0.8c-0.33-0.35-0.56-0.78-0.65-1.27c-0.03-0.16-0.45-1.11-0.67-1.4s-1.73-1.33-2.24-1.43l-2.12-0.39
		c-1.19-0.22-3.45,0.52-3.52,0.59c-0.36,0.36-1.02,0.68-1.72,0.87c-0.42,0.11-0.86,0.18-1.25,0.18s-0.77,0.15-1.07,0.4
		c-0.2,0.17-0.38,0.38-0.52,0.63c-0.21,0.37-0.33,0.82-0.33,1.31c0,0.64,0.28,1.23,0.74,1.65c0.46,0.42,1.08,0.69,1.78,0.69h2.36
		c0.86,0,1.94,0.31,2.87,0.79c0.56,0.28,1.06,0.63,1.42,0.99l0.91,0.91c0.98,0.98,1.78,2.91,1.78,4.29v3.79
		c0,1.04-0.31,2.24-0.75,3.07c-0.15,0.27-2.3,1.5-3.01,1.72c-0.43,0.13-0.91,0.29-1.4,0.46l-4.76,1.64
		c-0.33,0.11-1.18,0.75-1.3,0.89c-0.24,0.27-0.45,0.57-0.61,0.9c-0.24,0.49-0.36,1.02-0.33,1.54l0.18,3.55
		c0.02,0.35-0.28,2.14-0.48,2.6c-0.2,0.46-0.45,0.85-0.72,1.09c-0.73,0.65-1.29,2.24-1.24,3.53c0.02,0.48,0.14,1.03,0.33,1.58
		c0.06,0.18,0.55,1.23,0.75,1.54c0.2,0.31,0.42,0.58,0.64,0.79c0.79,0.75,1.45,2.25,1.6,3.54c0.02,0.18,0.02,6.1-0.02,6.27
		c-0.24,1.15-1.25,2.04-2.46,2.06l-3.83,0.08c-0.86,0.02-1.95,0.34-2.89,0.8c-0.56,0.28-1.08,0.61-1.45,0.97l-6.63,6.23
		c-1.01,0.95-0.7,1.72,0.68,1.72h5.36c0.35,0,0.68,0.07,0.98,0.2c0.3,0.13,0.57,0.31,0.8,0.54c0.46,0.46,0.74,1.08,0.74,1.78v5.33
		c0,0.86,0.21,1.63,0.52,2.08c0.06,0.09,0.13,0.17,0.2,0.23c0.14,0.13,2.08,1.34,2.08,2.03v0.98c0,1.04,0.34,2.47,0.81,3.62
		c0.16,0.38,0.33,0.73,0.52,1.03l4.07,6.53c0.46,0.73,1.26,1.58,2.1,2.26c0.5,0.41,1.02,0.76,1.48,0.99l2.31,1.15
		c0.62,0.31,3.54,2.41,4.03,2.9l0.08,0.08c0.98,0.98,2.58,2.58,3.56,3.56l3.4,3.4c0.12,0.12,21.14,20.88,21.14,20.88l5.77,5.77
		c0.73,0.73,1.34,1.67,1.57,2.36c0.08,0.23,0.11,0.44,0.1,0.6c-0.02,0.24,0.12,0.47,0.37,0.66c0.42,0.31,1.17,0.52,2.04,0.52h0.37
		c0.52,0,1,0.16,1.4,0.43c0.67,0.45,1.11,1.22,1.11,2.08v2.23c0,0.86,0.44,1.63,1.11,2.08c0.27,0.18,0.57,0.31,0.9,0.38
		c0.16,0.03,0.33,0.05,0.51,0.05h2.18c1.38,0,4.1,0.11,5.37,0.65l7.75,3.32c0.16,0.07,1.29,0.45,1.72,0.55
		c1.07,0.26,2.24,0.44,3.11,0.44h19.09c0.86,0,1.94-0.31,2.87-0.79c0.56-0.28,1.06-0.63,1.42-0.99l7.46-7.46
		c0.12-0.12,0.26-0.24,0.41-0.36c1.04-0.81,2.67-1.42,3.88-1.42l17.44-0.11c0.17,0,0.35-0.01,0.54-0.04
		c0.37-0.05,0.77-0.14,1.17-0.27c0.4-0.13,0.79-0.29,1.16-0.48c0.19-0.09,0.36-0.2,0.53-0.3c0.34-0.21,0.64-0.45,0.89-0.69
		l2.21-2.22c0.49-0.49,1.22-0.93,1.99-1.26c0.39-0.16,0.79-0.29,1.18-0.38c0.39-0.09,0.77-0.14,1.12-0.14h10.49
		c1.21,0,2.84-0.61,3.88-1.42c0.15-0.12,9.05-9,9.05-9c0.98-0.98,1.44-1,1.63-0.79c0.07,0.07,2.54,2.53,2.69,2.65
		c1.04,0.81,2.67,1.42,3.88,1.42h34.07c0.69,0,1.37,0.05,1.9,0.13s0.92,0.19,1.04,0.3c0.09,0.09,1.17,0.33,1.47,0.36
		c0.45,0.05,5.36,0.07,5.36,0.07c0.35,0,0.68-0.07,0.98-0.2c0.3-0.13,0.57-0.31,0.8-0.54c0.23-0.23,0.41-0.5,0.54-0.8
		c0.13-0.3,0.2-0.63,0.2-0.98c0,0,0.1-11.62,0.11-11.63c0.02-0.02,18.44-0.09,18.44-0.09c0.17,0,0.35-0.02,0.53-0.05
		c0.71-0.12,1.44-0.47,2.04-0.95c0.15-0.12,0.29-0.25,0.42-0.38c0.26-0.27,15.34-31.56,15.4-31.76c0.1-0.3,0.14-0.5,0.11-0.56
		c-0.03-0.07-0.05-0.29-0.07-0.61c-0.04-0.54-0.06-4.65-0.06-4.65c0-0.86,0.28-1.91,0.7-2.78c0.25-0.52,1.31-1.79,1.5-2.07
		c0.19-0.28,0.36-0.59,0.5-0.9c0.29-0.62,0.46-1.27,0.46-1.78s0.88-2.65,1.05-2.87c0.09-0.11,0.17-0.21,0.26-0.3
		c0.72-0.72,1.31-2.44,1.31-3.82v-0.52c0-1.38,0.16-3.16,0.23-3.41c0.06-0.25,0.4-0.47,0.9-0.63c0.5-0.16,1.15-0.26,1.84-0.26h1.49
		c0.69,0,1.32-0.28,1.78-0.74c0.23-0.23,0.41-0.5,0.54-0.8c0.13-0.3,0.2-0.63,0.2-0.98v-4.73c0-1.04,0.56-1.93,1.36-2.32
		c0.27-0.13,0.56-0.2,0.86-0.2c0.23,0,0.45-0.05,0.65-0.12c0.9-0.32,1.56-1.27,1.56-2.39v-8.55c0-0.69,0.16-1.32,0.43-1.78
		c0.26-0.46,0.63-0.74,1.03-0.74c0.2,0,0.39-0.07,0.57-0.2c0.35-0.26,0.63-0.74,0.78-1.34c0.07-0.3,0.12-0.63,0.12-0.98v-3.09
		c0-1.38,0.8-3.31,1.78-4.29l3.73-3.73c0.12-0.12,1.93-2.79,1.97-2.79c0.12,0,0.36,0,0.69,0c0.33,0,0.75,0,1.21,0
		c0.15,0,0.79-0.02,0.94-0.05c0.45-0.1,0.86-0.35,1.17-0.69c0.11-0.11,0.2-0.24,0.28-0.37c0.25-0.4,0.4-0.88,0.4-1.4V99.64
		c0-0.52,0.16-1,0.43-1.4c0.09-0.13,0.19-0.26,0.31-0.37c0.23-0.23,0.5-0.41,0.8-0.54c0.3-0.13,0.63-0.2,0.98-0.2h19.81
		c0.35,0,0.73-0.05,1.12-0.14c0.39-0.09,0.79-0.22,1.18-0.38c0.78-0.32,1.51-0.77,1.99-1.26l6.07-6.07c0.73-0.73,1.37-2,1.64-3.18
		c0.09-0.39,0.14-0.77,0.14-1.12v-9.07c0-1.38-1.13-2.51-2.51-2.51h-13.49c-1.38,0-2.51-1.13-2.51-2.51v-4.73
		c0-0.69-0.28-1.32-0.74-1.78c-0.23-0.23-0.5-0.41-0.8-0.54c-0.3-0.13-0.63-0.2-0.98-0.2h-7.81c-0.35,0-0.68-0.07-0.98-0.2
		c-0.3-0.13-0.57-0.31-0.8-0.54c-0.46-0.46-0.74-1.08-0.74-1.78v-7.17c0-1.38-1.13-2.51-2.51-2.51h-5.17
		c-0.17,0-0.35,0.02-0.52,0.05c-1.02,0.2-1.95,0.96-2.34,1.92c-0.07,0.16-0.12,0.33-0.15,0.5l-0.08,0.4
		c-0.24,1.19-1.85,2.65-2.5,2.52c-0.16-0.03-0.33-0.05-0.51-0.05h-9.75c-0.86,0-1.94-0.31-2.87-0.79c-0.56-0.28-1.06-0.63-1.42-0.99
		l-6.3-6.3c-0.49-0.49-1.92-1.41-2.05-1.47c-0.4-0.19-0.77-0.3-1.04-0.3c-0.18,0-1.12-0.31-1.38-0.45
		c-0.52-0.28-1.05-0.67-1.48-1.09c-0.11-0.11-0.64-0.51-0.8-0.6c-0.78-0.46-3.09-0.94-3.26-0.94h-4.12c-0.35,0-1.55,0.25-1.78,0.37
		c-0.11,0.06-0.22,0.12-0.31,0.19c-0.27,0.2-0.43,0.44-0.43,0.7s-0.16,0.5-0.43,0.7c-0.36,0.27-1.91,0.55-2.08,0.55h-17.01
		c-0.52,0-1-0.09-1.4-0.24c-0.67-0.25-1.11-0.67-1.11-1.14c0-0.38-0.28-0.68-0.73-0.86c-0.23-0.09-0.49-0.15-0.79-0.17
		c-0.15-0.01-0.79,0.01-0.97,0.04l-9.11,1.4c-0.34,0.05-0.7,0.17-1.05,0.33c-1.05,0.48-2.05,1.4-2.48,2.34l-7.74,16.93
		c-0.58,1.26-2.18,2.29-3.56,2.29c0,0-8.45-0.52-8.88-0.52c-0.14,0-0.3,0.01-0.45,0.04c-0.64,0.1-1.38,0.37-2.05,0.75
		c-0.51,0.28-0.98,0.63-1.35,0.99l-4.03,4.03c-0.12,0.12-0.25,0.23-0.39,0.32c-0.42,0.28-0.9,0.41-1.38,0.41
		c-0.32,0-0.64-0.06-0.95-0.18s-0.59-0.31-0.83-0.55l-2.8-2.8c-0.12-0.12-0.26-0.24-0.41-0.36c-0.45-0.35-1-0.66-1.59-0.9
		c-0.19-0.08-0.39-0.15-0.59-0.22c-0.4-0.13-0.79-0.22-1.17-0.27c-0.19-0.02-0.37-0.04-0.54-0.04c0,0-6.88,0.07-7.18,0.2
		c-0.3,0.13-0.57,0.31-0.8,0.54c-0.11,0.11-0.22,0.24-0.31,0.37c-0.27,0.4-0.43,0.88-0.43,1.4v6.24c0,0.69-0.28,1.32-0.74,1.78
		c-0.46,0.46-1.08,0.74-1.78,0.74h-20.19c-0.17,0-1.74,0.26-2.34,0.48c-0.8,0.29-1.57,0.7-2.09,1.15l-3.47,2.94
		c-1.05,0.89-3.05,1.66-4.43,1.69l-1.18,0.03c-1.38,0.04-2.51,1.2-2.51,2.58v9.65C169.75,99.14,168.28,101.67,168.05,101.9z"/>
	<g>
		<path class="st1" d="M137,161.31c-0.04-0.23-0.44-1.07-0.89-1.85c-0.45-0.78-1.68-1.99-2.72-2.68s-2.25-0.82-2.68-0.29
			s-1.03,1.55-1.33,2.27c-0.31,0.72-1.52,1.91-2.69,2.64l-1.79,1.12c-1.17,0.73-1.84,1.79-1.49,2.34c0.35,0.56,0.36,1.25,0.02,1.53
			c-0.34,0.29-1.03,0.1-1.53-0.4c-0.5-0.51-1.95-0.47-3.22,0.09l-16.26,7.12c-1.27,0.55-2.31,1.01-2.32,1.01
			c-0.01,0,0.02,0.3,0.07,0.67c0.05,0.37-1.04,0.77-2.42,0.9l-1.62,0.14c-1.38,0.12-2.31,1.27-2.08,2.55
			c0.23,1.28,1.55,2.25,2.93,2.15l1.05-0.08c1.38-0.1,3.54-0.63,4.81-1.19l4.86-2.12c1.27-0.55,3.33-1.49,4.58-2.09l10.09-4.79
			c1.25-0.59,2.17-1.31,2.05-1.6c-0.12-0.28-0.02-0.72,0.23-0.97s0.88-0.08,1.4,0.37c0.52,0.45,1.87,0.16,2.99-0.65l5.97-4.3
			C136.15,162.4,137.04,161.55,137,161.31z"/>
		<path class="st2" d="M137,161.31c-0.04-0.23-0.44-1.07-0.89-1.85c-0.45-0.78-1.68-1.99-2.72-2.68s-2.25-0.82-2.68-0.29
			s-1.03,1.55-1.33,2.27c-0.31,0.72-1.52,1.91-2.69,2.64l-1.79,1.12c-1.17,0.73-1.84,1.79-1.49,2.34c0.35,0.56,0.36,1.25,0.02,1.53
			c-0.34,0.29-1.03,0.1-1.53-0.4c-0.5-0.51-1.95-0.47-3.22,0.09l-16.26,7.12c-1.27,0.55-2.31,1.01-2.32,1.01
			c-0.01,0,0.02,0.3,0.07,0.67c0.05,0.37-1.04,0.77-2.42,0.9l-1.62,0.14c-1.38,0.12-2.31,1.27-2.08,2.55
			c0.23,1.28,1.55,2.25,2.93,2.15l1.05-0.08c1.38-0.1,3.54-0.63,4.81-1.19l4.86-2.12c1.27-0.55,3.33-1.49,4.58-2.09l10.09-4.79
			c1.25-0.59,2.17-1.31,2.05-1.6c-0.12-0.28-0.02-0.72,0.23-0.97s0.88-0.08,1.4,0.37c0.52,0.45,1.87,0.16,2.99-0.65l5.97-4.3
			C136.15,162.4,137.04,161.55,137,161.31z"/>
	</g>
</g>
<polygon class="st3" points="137.65,223.36 137.65,230.86 144.14,234.61 150.64,230.86 150.64,223.36 144.14,219.61 "/>
<polygon class="st3" points="164.07,202.23 164.07,209.73 170.56,213.48 177.06,209.73 177.06,202.23 170.56,198.48 "/>
<polygon class="st4" points="235.22,211.82 235.22,219.32 241.71,223.07 248.21,219.32 248.21,211.82 241.71,208.07 "/>
<polygon class="st3" points="211.99,162.76 211.99,170.26 218.49,174.01 224.98,170.26 224.98,162.76 218.49,159.01 "/>
<polygon class="st3" points="224.28,118.64 224.28,126.14 230.78,129.89 237.27,126.14 237.27,118.64 230.78,114.89 "/>
<polygon class="st3" points="245.66,88.41 245.66,95.91 252.16,99.66 258.65,95.91 258.65,88.41 252.16,84.66 "/>
<polygon class="st3" points="218.49,72.92 218.49,80.42 224.98,84.17 231.48,80.42 231.48,72.92 224.98,69.17 "/>
<polygon class="st3" points="265.08,73.41 265.08,80.91 271.57,84.66 278.07,80.91 278.07,73.41 271.57,69.66 "/>
<polygon class="st3" points="312.88,80.42 312.88,87.92 319.37,91.67 325.87,87.92 325.87,80.42 319.37,76.67 "/>
<polygon class="st3" points="307.1,112.73 307.1,120.23 313.6,123.98 320.09,120.23 320.09,112.73 313.6,108.98 "/>
<polygon class="st3" points="282.4,176.76 282.4,184.26 288.9,188.01 295.39,184.26 295.39,176.76 288.9,173.01 "/>
<polygon class="st3" points="116.88,202.23 116.88,209.73 123.38,213.48 129.87,209.73 129.87,202.23 123.38,198.48 "/>
<polygon class="st3" points="66.99,166.84 66.99,174.34 73.49,178.09 79.98,174.34 79.98,166.84 73.49,163.09 "/>
<polygon class="st3" points="57.29,137.61 57.29,145.11 63.78,148.86 70.28,145.11 70.28,137.61 63.78,133.86 "/>
<polygon class="st3" points="111.84,103.64 111.84,111.14 118.34,114.89 124.83,111.14 124.83,103.64 118.34,99.89 "/>
<polygon class="st3" points="121.8,147.76 121.8,155.26 128.29,159.01 134.79,155.26 134.79,147.76 128.29,144.01 "/>
<polygon class="st3" points="148.41,139.52 148.41,147.02 154.91,150.77 161.4,147.02 161.4,139.52 154.91,135.77 "/>
<polygon class="st3" points="147.55,112.98 147.55,120.48 154.05,124.23 160.54,120.48 160.54,112.98 154.05,109.23 "/>
<polygon class="st3" points="181.47,118.64 181.47,126.14 187.96,129.89 194.46,126.14 194.46,118.64 187.96,114.89 "/>
<g>
	<path class="st0" d="M609.05,101.9c-0.67,0.67-1.88,1.25-3.03,1.5c-0.38,0.08-0.76,0.13-1.1,0.13h-7.78
		c-0.35,0-2.18,0.28-2.45,0.37c-0.4,0.13-1.19,0.68-1.42,0.76c-0.23,0.08-0.5,0.15-0.8,0.2c-0.3,0.05-1.66,0.07-2.01,0.03
		l-4.82-0.58l-4.82-0.58c-0.51-0.06-1.15-0.1-1.82-0.11c-1.11-0.02-2.31,0.03-3.17,0.15l-11.32,0.9c-0.17,0-1.31-0.18-1.71-0.3
		c-0.59-0.19-1.19-0.46-1.7-0.78c-0.34-0.21-0.64-0.45-0.89-0.69l-3.44-3.44c-0.37-0.37-0.82-0.71-1.28-0.99
		c-0.47-0.28-0.95-0.51-1.39-0.65c-0.29-0.09-0.57-0.14-0.8-0.14c-0.93,0-2.5-0.8-3.48-1.78l-1.14-1.14
		c-0.98-0.98-5.99-5.99-5.99-5.99c-0.98-0.98-2.36-2.36-3.07-3.07c-0.36-0.36-0.96-0.68-1.65-0.91s-1.46-0.38-2.16-0.38h-2.55
		c-1.38,0-2.51,1.13-2.51,2.51c0,0-0.23,2.98-0.55,3.98c-0.11,0.33-0.22,0.63-0.35,0.87c-0.25,0.47-0.64,0.9-1.08,1.21
		c-0.44,0.31-0.92,0.51-1.34,0.51c-0.53,0-0.99,0.23-1.27,0.58c-0.17,0.21-0.26,0.46-0.26,0.73c0,0.36,0.15,0.83,0.39,1.29
		c0.24,0.46,1.28,1.66,1.44,1.94c0.47,0.83,0.8,2.04,0.8,3.07v4.03c0,1.38-1.13,2.51-2.51,2.51h-5.17c-0.35,0-1.55-0.24-1.78-0.35
		c-0.46-0.21-0.74-0.51-0.74-0.84c0-0.49-0.28-0.91-0.68-1.09c-0.13-0.06-0.28-0.09-0.43-0.09s-0.3,0.03-0.43,0.09
		s-0.25,0.14-0.36,0.24c-0.2,0.2-0.33,0.48-0.33,0.78s-0.27,0.61-0.69,0.87c-0.21,0.13-1.34,0.5-1.67,0.54
		c-0.81,0.1-1.61-0.22-2.15-0.8c-0.33-0.35-0.56-0.78-0.65-1.27c-0.03-0.16-0.45-1.11-0.67-1.4s-1.73-1.33-2.24-1.43l-2.12-0.39
		c-1.19-0.22-3.45,0.52-3.52,0.59c-0.36,0.36-1.02,0.68-1.72,0.87c-0.42,0.11-0.86,0.18-1.25,0.18s-0.77,0.15-1.07,0.4
		c-0.2,0.17-0.38,0.38-0.52,0.63c-0.21,0.37-0.33,0.82-0.33,1.31c0,0.64,0.28,1.23,0.74,1.65c0.46,0.42,1.08,0.69,1.78,0.69h2.36
		c0.86,0,1.94,0.31,2.87,0.79c0.56,0.28,1.06,0.63,1.42,0.99l0.91,0.91c0.98,0.98,1.78,2.91,1.78,4.29v3.79
		c0,1.04-0.31,2.24-0.75,3.07c-0.15,0.27-2.3,1.5-3.01,1.72c-0.43,0.13-0.91,0.29-1.4,0.46l-4.76,1.64
		c-0.33,0.11-1.18,0.75-1.3,0.89c-0.24,0.27-0.45,0.57-0.61,0.9c-0.24,0.49-0.36,1.02-0.33,1.54l0.18,3.55
		c0.02,0.35-0.28,2.14-0.48,2.6c-0.2,0.46-0.45,0.85-0.72,1.09c-0.73,0.65-1.29,2.24-1.24,3.53c0.02,0.48,0.14,1.03,0.33,1.58
		c0.06,0.18,0.55,1.23,0.75,1.54c0.2,0.31,0.42,0.58,0.64,0.79c0.79,0.75,1.45,2.25,1.6,3.54c0.02,0.18,0.02,6.1-0.02,6.27
		c-0.24,1.15-1.25,2.04-2.46,2.06l-3.83,0.08c-0.86,0.02-1.95,0.34-2.89,0.8c-0.56,0.28-1.08,0.61-1.45,0.97l-6.63,6.23
		c-1.01,0.95-0.7,1.72,0.68,1.72h5.36c0.35,0,0.68,0.07,0.98,0.2c0.3,0.13,0.57,0.31,0.8,0.54c0.46,0.46,0.74,1.08,0.74,1.78v5.33
		c0,0.86,0.21,1.63,0.52,2.08c0.06,0.09,0.13,0.17,0.2,0.23c0.14,0.13,2.08,1.34,2.08,2.03v0.98c0,1.04,0.34,2.47,0.81,3.62
		c0.16,0.38,0.33,0.73,0.52,1.03l4.07,6.53c0.46,0.73,1.26,1.58,2.1,2.26c0.5,0.41,1.02,0.76,1.48,0.99l2.31,1.15
		c0.62,0.31,3.54,2.41,4.03,2.9l0.08,0.08c0.98,0.98,2.58,2.58,3.56,3.56l3.4,3.4c0.12,0.12,21.14,20.88,21.14,20.88l5.77,5.77
		c0.73,0.73,1.34,1.67,1.57,2.36c0.08,0.23,0.11,0.44,0.1,0.6c-0.02,0.24,0.12,0.47,0.37,0.66c0.42,0.31,1.17,0.52,2.04,0.52h0.37
		c0.52,0,1,0.16,1.4,0.43c0.67,0.45,1.11,1.22,1.11,2.08v2.23c0,0.86,0.44,1.63,1.11,2.08c0.27,0.18,0.57,0.31,0.9,0.38
		c0.16,0.03,0.33,0.05,0.51,0.05h2.18c1.38,0,4.1,0.11,5.37,0.65l7.75,3.32c0.16,0.07,1.29,0.45,1.72,0.55
		c1.07,0.26,2.24,0.44,3.11,0.44h19.09c0.86,0,1.94-0.31,2.87-0.79c0.56-0.28,1.06-0.63,1.42-0.99l7.46-7.46
		c0.12-0.12,0.26-0.24,0.41-0.36c1.04-0.81,2.67-1.42,3.88-1.42l17.44-0.11c0.17,0,0.35-0.01,0.54-0.04
		c0.37-0.05,0.77-0.14,1.17-0.27c0.4-0.13,0.79-0.29,1.16-0.48c0.19-0.09,0.36-0.2,0.53-0.3c0.34-0.21,0.64-0.45,0.89-0.69
		l2.21-2.22c0.49-0.49,1.22-0.93,1.99-1.26c0.39-0.16,0.79-0.29,1.18-0.38c0.39-0.09,0.77-0.14,1.12-0.14h10.49
		c1.21,0,2.84-0.61,3.88-1.42c0.15-0.12,9.05-9,9.05-9c0.98-0.98,1.44-1,1.63-0.79c0.07,0.07,2.54,2.53,2.69,2.65
		c1.04,0.81,2.67,1.42,3.88,1.42h34.07c0.69,0,1.37,0.05,1.9,0.13s0.92,0.19,1.04,0.3c0.09,0.09,1.17,0.33,1.47,0.36
		c0.45,0.05,5.36,0.07,5.36,0.07c0.35,0,0.68-0.07,0.98-0.2c0.3-0.13,0.57-0.31,0.8-0.54c0.23-0.23,0.41-0.5,0.54-0.8
		c0.13-0.3,0.2-0.63,0.2-0.98c0,0,0.1-11.62,0.11-11.63c0.02-0.02,18.44-0.09,18.44-0.09c0.17,0,0.35-0.02,0.53-0.05
		c0.71-0.12,1.44-0.47,2.04-0.95c0.15-0.12,0.29-0.25,0.42-0.38c0.26-0.27,15.34-31.56,15.4-31.76c0.1-0.3,0.14-0.5,0.11-0.56
		c-0.03-0.07-0.05-0.29-0.07-0.61c-0.04-0.54-0.06-4.65-0.06-4.65c0-0.86,0.28-1.91,0.7-2.78c0.25-0.52,1.31-1.79,1.5-2.07
		c0.19-0.28,0.36-0.59,0.5-0.9c0.29-0.62,0.46-1.27,0.46-1.78s0.88-2.65,1.05-2.87c0.09-0.11,0.17-0.21,0.26-0.3
		c0.72-0.72,1.31-2.44,1.31-3.82v-0.52c0-1.38,0.16-3.16,0.23-3.41c0.06-0.25,0.4-0.47,0.9-0.63c0.5-0.16,1.15-0.26,1.84-0.26h1.49
		c0.69,0,1.32-0.28,1.78-0.74c0.23-0.23,0.41-0.5,0.54-0.8c0.13-0.3,0.2-0.63,0.2-0.98v-4.73c0-1.04,0.56-1.93,1.36-2.32
		c0.27-0.13,0.56-0.2,0.86-0.2c0.23,0,0.45-0.05,0.65-0.12c0.9-0.32,1.56-1.27,1.56-2.39v-8.55c0-0.69,0.16-1.32,0.43-1.78
		c0.26-0.46,0.63-0.74,1.03-0.74c0.2,0,0.39-0.07,0.57-0.2c0.35-0.26,0.63-0.74,0.78-1.34c0.07-0.3,0.12-0.63,0.12-0.98v-3.09
		c0-1.38,0.8-3.31,1.78-4.29l3.73-3.73c0.12-0.12,1.93-2.79,1.97-2.79c0.12,0,0.36,0,0.69,0c0.33,0,0.75,0,1.21,0
		c0.15,0,0.79-0.02,0.94-0.05c0.45-0.1,0.86-0.35,1.17-0.69c0.11-0.11,0.2-0.24,0.28-0.37c0.25-0.4,0.4-0.88,0.4-1.4V99.64
		c0-0.52,0.16-1,0.43-1.4c0.09-0.13,0.19-0.26,0.31-0.37c0.23-0.23,0.5-0.41,0.8-0.54c0.3-0.13,0.63-0.2,0.98-0.2h19.81
		c0.35,0,0.73-0.05,1.12-0.14c0.39-0.09,0.79-0.22,1.18-0.38c0.78-0.32,1.51-0.77,1.99-1.26l6.07-6.07c0.73-0.73,1.37-2,1.64-3.18
		c0.09-0.39,0.14-0.77,0.14-1.12v-9.07c0-1.38-1.13-2.51-2.51-2.51h-13.49c-1.38,0-2.51-1.13-2.51-2.51v-4.73
		c0-0.69-0.28-1.32-0.74-1.78c-0.23-0.23-0.5-0.41-0.8-0.54c-0.3-0.13-0.63-0.2-0.98-0.2h-7.81c-0.35,0-0.68-0.07-0.98-0.2
		c-0.3-0.13-0.57-0.31-0.8-0.54c-0.46-0.46-0.74-1.08-0.74-1.78v-7.17c0-1.38-1.13-2.51-2.51-2.51h-5.17
		c-0.17,0-0.35,0.02-0.52,0.05c-1.02,0.2-1.95,0.96-2.34,1.92c-0.07,0.16-0.12,0.33-0.15,0.5l-0.08,0.4
		c-0.24,1.19-1.85,2.65-2.5,2.52c-0.16-0.03-0.33-0.05-0.51-0.05h-9.75c-0.86,0-1.94-0.31-2.87-0.79c-0.56-0.28-1.06-0.63-1.42-0.99
		l-6.3-6.3c-0.49-0.49-1.92-1.41-2.05-1.47c-0.4-0.19-0.77-0.3-1.04-0.3c-0.18,0-1.12-0.31-1.38-0.45
		c-0.52-0.28-1.05-0.67-1.48-1.09c-0.11-0.11-0.64-0.51-0.8-0.6c-0.78-0.46-3.09-0.94-3.26-0.94h-4.12c-0.35,0-1.55,0.25-1.78,0.37
		c-0.11,0.06-0.22,0.12-0.31,0.19c-0.27,0.2-0.43,0.44-0.43,0.7s-0.16,0.5-0.43,0.7c-0.36,0.27-1.91,0.55-2.08,0.55h-17.01
		c-0.52,0-1-0.09-1.4-0.24c-0.67-0.25-1.11-0.67-1.11-1.14c0-0.38-0.28-0.68-0.73-0.86c-0.23-0.09-0.49-0.15-0.79-0.17
		c-0.15-0.01-0.79,0.01-0.97,0.04l-9.11,1.4c-0.34,0.05-0.7,0.17-1.05,0.33c-1.05,0.48-2.05,1.4-2.48,2.34l-7.74,16.93
		c-0.58,1.26-2.18,2.29-3.56,2.29c0,0-8.45-0.52-8.88-0.52c-0.14,0-0.3,0.01-0.45,0.04c-0.64,0.1-1.38,0.37-2.05,0.75
		c-0.51,0.28-0.98,0.63-1.35,0.99l-4.03,4.03c-0.12,0.12-0.25,0.23-0.39,0.32c-0.42,0.28-0.9,0.41-1.38,0.41
		c-0.32,0-0.64-0.06-0.95-0.18s-0.59-0.31-0.83-0.55l-2.8-2.8c-0.12-0.12-0.26-0.24-0.41-0.36c-0.45-0.35-1-0.66-1.59-0.9
		c-0.19-0.08-0.39-0.15-0.59-0.22c-0.4-0.13-0.79-0.22-1.17-0.27c-0.19-0.02-0.37-0.04-0.54-0.04c0,0-6.88,0.07-7.18,0.2
		c-0.3,0.13-0.57,0.31-0.8,0.54c-0.11,0.11-0.22,0.24-0.31,0.37c-0.27,0.4-0.43,0.88-0.43,1.4v6.24c0,0.69-0.28,1.32-0.74,1.78
		c-0.46,0.46-1.08,0.74-1.78,0.74h-20.19c-0.17,0-1.74,0.26-2.34,0.48c-0.8,0.29-1.57,0.7-2.09,1.15l-3.47,2.94
		c-1.05,0.89-3.05,1.66-4.43,1.69l-1.18,0.03c-1.38,0.04-2.51,1.2-2.51,2.58v9.65C610.75,99.14,609.28,101.67,609.05,101.9z"/>
	<g>
		<path class="st1" d="M578,161.31c-0.04-0.23-0.44-1.07-0.89-1.85c-0.45-0.78-1.68-1.99-2.72-2.68c-1.05-0.69-2.25-0.82-2.68-0.29
			s-1.03,1.55-1.33,2.27c-0.31,0.72-1.52,1.91-2.69,2.64l-1.79,1.12c-1.17,0.73-1.84,1.79-1.49,2.34c0.35,0.56,0.36,1.25,0.02,1.53
			c-0.34,0.29-1.03,0.1-1.53-0.4c-0.5-0.51-1.95-0.47-3.22,0.09l-16.26,7.12c-1.27,0.55-2.31,1.01-2.32,1.01
			c-0.01,0,0.02,0.3,0.07,0.67c0.05,0.37-1.04,0.77-2.42,0.9l-1.62,0.14c-1.38,0.12-2.31,1.27-2.08,2.55
			c0.23,1.28,1.55,2.25,2.93,2.15l1.05-0.08c1.38-0.1,3.54-0.63,4.81-1.19l4.86-2.12c1.27-0.55,3.33-1.49,4.58-2.09l10.09-4.79
			c1.25-0.59,2.17-1.31,2.05-1.6c-0.12-0.28-0.02-0.72,0.23-0.97s0.88-0.08,1.4,0.37c0.52,0.45,1.87,0.16,2.99-0.65l5.97-4.3
			C577.15,162.4,578.04,161.55,578,161.31z"/>
		<path class="st2" d="M578,161.31c-0.04-0.23-0.44-1.07-0.89-1.85c-0.45-0.78-1.68-1.99-2.72-2.68c-1.05-0.69-2.25-0.82-2.68-0.29
			s-1.03,1.55-1.33,2.27c-0.31,0.72-1.52,1.91-2.69,2.64l-1.79,1.12c-1.17,0.73-1.84,1.79-1.49,2.34c0.35,0.56,0.36,1.25,0.02,1.53
			c-0.34,0.29-1.03,0.1-1.53-0.4c-0.5-0.51-1.95-0.47-3.22,0.09l-16.26,7.12c-1.27,0.55-2.31,1.01-2.32,1.01
			c-0.01,0,0.02,0.3,0.07,0.67c0.05,0.37-1.04,0.77-2.42,0.9l-1.62,0.14c-1.38,0.12-2.31,1.27-2.08,2.55
			c0.23,1.28,1.55,2.25,2.93,2.15l1.05-0.08c1.38-0.1,3.54-0.63,4.81-1.19l4.86-2.12c1.27-0.55,3.33-1.49,4.58-2.09l10.09-4.79
			c1.25-0.59,2.17-1.31,2.05-1.6c-0.12-0.28-0.02-0.72,0.23-0.97s0.88-0.08,1.4,0.37c0.52,0.45,1.87,0.16,2.99-0.65l5.97-4.3
			C577.15,162.4,578.04,161.55,578,161.31z"/>
	</g>
</g>
<polygon class="st3" points="578.65,223.36 578.65,230.86 585.14,234.61 591.64,230.86 591.64,223.36 585.14,219.61 "/>
<polygon class="st3" points="605.07,202.23 605.07,209.73 611.56,213.48 618.06,209.73 618.06,202.23 611.56,198.48 "/>
<polygon class="st4" points="676.22,211.82 676.22,219.32 682.71,223.07 689.21,219.32 689.21,211.82 682.71,208.07 "/>
<polygon class="st3" points="652.99,162.76 652.99,170.26 659.49,174.01 665.98,170.26 665.98,162.76 659.49,159.01 "/>
<polygon class="st3" points="665.28,118.64 665.28,126.14 671.78,129.89 678.27,126.14 678.27,118.64 671.78,114.89 "/>
<polygon class="st3" points="686.66,88.41 686.66,95.91 693.16,99.66 699.65,95.91 699.65,88.41 693.16,84.66 "/>
<polygon class="st3" points="659.49,72.92 659.49,80.42 665.98,84.17 672.48,80.42 672.48,72.92 665.98,69.17 "/>
<polygon class="st3" points="706.08,73.41 706.08,80.91 712.57,84.66 719.07,80.91 719.07,73.41 712.57,69.66 "/>
<polygon class="st3" points="753.88,80.42 753.88,87.92 760.37,91.67 766.87,87.92 766.87,80.42 760.37,76.67 "/>
<polygon class="st3" points="748.1,112.73 748.1,120.23 754.6,123.98 761.09,120.23 761.09,112.73 754.6,108.98 "/>
<polygon class="st3" points="723.4,176.76 723.4,184.26 729.9,188.01 736.39,184.26 736.39,176.76 729.9,173.01 "/>
<polygon class="st3" points="557.88,202.23 557.88,209.73 564.38,213.48 570.87,209.73 570.87,202.23 564.38,198.48 "/>
<polygon class="st3" points="507.99,166.84 507.99,174.34 514.49,178.09 520.98,174.34 520.98,166.84 514.49,163.09 "/>
<polygon class="st3" points="498.29,137.61 498.29,145.11 504.78,148.86 511.28,145.11 511.28,137.61 504.78,133.86 "/>
<polygon class="st3" points="552.84,103.64 552.84,111.14 559.34,114.89 565.83,111.14 565.83,103.64 559.34,99.89 "/>
<polygon class="st3" points="562.8,147.76 562.8,155.26 569.29,159.01 575.79,155.26 575.79,147.76 569.29,144.01 "/>
<polygon class="st3" points="589.41,139.52 589.41,147.02 595.91,150.77 602.4,147.02 602.4,139.52 595.91,135.77 "/>
<polygon class="st3" points="588.55,112.98 588.55,120.48 595.05,124.23 601.54,120.48 601.54,112.98 595.05,109.23 "/>
<polygon class="st3" points="622.47,118.64 622.47,126.14 628.96,129.89 635.46,126.14 635.46,118.64 628.96,114.89 "/>
<text transform="matrix(1 0 0 1 576.2822 247.7095)" class="st5 st6">Pécs</text>
<text transform="matrix(1 0 0 1 601.2822 222.7095)" class="st5 st6">Szekszárd</text>
<text transform="matrix(1 0 0 1 665.2822 234.7095)" class="st5 st6">Szeged</text>
<text transform="matrix(1 0 0 1 644.2822 184.7095)" class="st5 st6">Kecskemét</text>
<text transform="matrix(1 0 0 1 618.2822 141.7095)" class="st5 st6">Bp.</text>
<text transform="matrix(1 0 0 1 514.2822 222.7095)" class="st5 st6">Kaposvár</text>
<text transform="matrix(1 0 0 1 471.2822 190.7095)" class="st5 st6">Zalaegerszeg</text>
<text transform="matrix(1 0 0 1 457.2822 128.7095)" class="st5 st6">Szombathely</text>
<text transform="matrix(1 0 0 1 539.2822 91.7095)" class="st5 st6">Győr</text>
<text transform="matrix(1 0 0 1 580.2822 99.7095)" class="st5 st6">Tatabánya</text>
<text transform="matrix(1 0 0 1 626.2822 62.7095)" class="st5 st6">Salgótarján</text>
<text transform="matrix(1 0 0 1 682.2822 109.7095)" class="st5 st6">Eger</text>
<text transform="matrix(1 0 0 1 663.2822 139.7095)" class="st5 st6">Szolnok</text>
<text transform="matrix(1 0 0 1 703.2822 66.7095)" class="st5 st6">Miskolc</text>
<text transform="matrix(1 0 0 1 745.2822 74.7095)" class="st5 st6">Nyíregyháza</text>
<text transform="matrix(1 0 0 1 728.2822 133.7095)" class="st5 st6">Debrecen</text>
<text transform="matrix(1 0 0 1 716.2822 201.7095)" class="st5 st6">Békéscsaba</text>
<text transform="matrix(1 0 0 1 539.2822 139.7095)" class="st5 st6">Veszprém</text>
<text transform="matrix(1 0 0 1 580.2822 158.7095)" class="st5 st6">Székesfehérvár</text>
<g>
	<polygon class="st7" points="87.05,338.43 76.7,338.43 75.72,315.48 87.54,315.48 	"/>
	<circle class="st7" cx="81.63" cy="309.23" r="4.71"/>
</g>
<g>
	<polygon class="st4" points="69.05,338.13 58.7,338.13 57.72,315.17 69.54,315.17 	"/>
	<circle class="st4" cx="63.63" cy="308.92" r="4.71"/>
</g>
</svg>
